name Walk7.mot
datacolumns 19
datarows 22
range 2.20500000 2.31000000
endheader

                time	   L_ground_force_vx	   L_ground_force_vy	   L_ground_force_vz	   L_ground_force_px	   L_ground_force_py	   L_ground_force_pz	   R_ground_force_vx	   R_ground_force_vy	   R_ground_force_vz	   R_ground_force_px	   R_ground_force_py	   R_ground_force_pz	   L_ground_torque_x	   L_ground_torque_y	   L_ground_torque_z	   R_ground_torque_x	   R_ground_torque_y	   R_ground_torque_z	
          2.20500000	        -24.42008176	        534.14045440	         31.12189421	          0.46954152	          0.00000000	          0.19260003	          0.01386301	          0.01657897	          0.00259259	         -0.00003722	          0.00000000	          0.00015209	          0.00000000	         -1.75154726	          0.00000000	          0.00000000	         -0.00006821	          0.00000000	
          2.21000000	        -22.20089615	        529.88495957	         32.07213022	          0.47152523	          0.00000000	          0.19239305	          0.00518866	         -0.00178270	          0.00176461	         -0.00002452	          0.00000000	          0.00010433	          0.00000000	         -1.84367103	          0.00000000	          0.00000000	         -0.00002368	          0.00000000	
          2.21500000	        -20.03502498	        527.19370936	         33.11506547	          0.47349676	          0.00000000	          0.19218097	         -0.00078439	         -0.01341670	          0.00109408	         -0.00001444	          0.00000000	          0.00006546	          0.00000000	         -1.92923990	          0.00000000	          0.00000000	          0.00000675	          0.00000000	
          2.22000000	        -17.90552341	        526.06659829	         34.16404658	          0.47544868	          0.00000000	          0.19197030	         -0.00455276	         -0.01981626	          0.00057755	         -0.00000683	          0.00000000	          0.00003535	          0.00000000	         -2.01047937	          0.00000000	          0.00000000	          0.00002573	          0.00000000	
          2.22500000	        -15.79530336	        526.48469896	         35.13752450	          0.47737532	          0.00000000	          0.19176787	         -0.00660927	         -0.02235294	          0.00020064	         -0.00000141	          0.00000000	          0.00001325	          0.00000000	         -2.09018588	          0.00000000	          0.00000000	          0.00003586	          0.00000000	
          2.23000000	        -13.68913989	        528.40801132	         35.96529477	          0.47927213	          0.00000000	          0.19158163	         -0.00740536	         -0.02221182	         -0.00005694	          0.00000217	          0.00000000	         -0.00000197	          0.00000000	         -2.17136693	          0.00000000	          0.00000000	          0.00003953	          0.00000000	
          2.23500000	        -11.57799525	        531.77342560	         36.59212520	          0.48113486	          0.00000000	          0.19141941	         -0.00733020	         -0.02036464	         -0.00021762	          0.00000430	          0.00000000	         -0.00001158	          0.00000000	         -2.25701359	          0.00000000	          0.00000000	          0.00003875	          0.00000000	
          2.24000000	         -9.46148871	        536.49184531	         36.97995396	          0.48296227	          0.00000000	          0.19128644	         -0.00670227	         -0.01756948	         -0.00030344	          0.00000533	          0.00000000	         -0.00001682	          0.00000000	         -2.34976938	          0.00000000	          0.00000000	          0.00003519	          0.00000000	
          2.24500000	         -7.34799813	        542.45092405	         37.10942074	          0.48475986	          0.00000000	          0.19118508	         -0.00576953	         -0.01438746	         -0.00033448	          0.00000556	          0.00000000	         -0.00001886	          0.00000000	         -2.45135187	          0.00000000	          0.00000000	          0.00003012	          0.00000000	
          2.25000000	         -5.25213060	        549.51832482	         36.98099935	          0.48653808	          0.00000000	          0.19111559	         -0.00471507	         -0.01120902	         -0.00032794	          0.00000527	          0.00000000	         -0.00001867	          0.00000000	         -2.56225242	          0.00000000	          0.00000000	          0.00002449	          0.00000000	
          2.25500000	         -3.19145221	        557.54064740	         36.61540115	          0.48831205	          0.00000000	          0.19107482	         -0.00366597	         -0.00828425	         -0.00029780	          0.00000467	          0.00000000	         -0.00001707	          0.00000000	         -2.68141168	          0.00000000	          0.00000000	          0.00001894	          0.00000000	
          2.26000000	         -1.18514654	        566.34671727	         36.05241400	          0.49010182	          0.00000000	          0.19105808	         -0.00270326	         -0.00575347	         -0.00025492	          0.00000392	          0.00000000	         -0.00001470	          0.00000000	         -2.80562151	          0.00000000	          0.00000000	          0.00001388	          0.00000000	
          2.26500000	          0.74567180	        575.75485530	         35.34823316	          0.49192946	          0.00000000	          0.19106017	         -0.00187211	         -0.00367550	         -0.00020727	          0.00000312	          0.00000000	         -0.00001201	          0.00000000	         -2.92997721	          0.00000000	          0.00000000	          0.00000954	          0.00000000	
          2.27000000	          2.57876022	        585.57808597	         34.57044250	          0.49381792	          0.00000000	          0.19107524	         -0.00119104	         -0.00205225	         -0.00016031	          0.00000237	          0.00000000	         -0.00000934	          0.00000000	         -3.04886401	          0.00000000	          0.00000000	          0.00000601	          0.00000000	
          2.27500000	          4.29228928	        595.62670735	         33.79158897	          0.49578975	          0.00000000	          0.19109781	         -0.00066009	         -0.00084898	         -0.00011752	          0.00000169	          0.00000000	         -0.00000689	          0.00000000	         -3.15637663	          0.00000000	          0.00000000	          0.00000326	          0.00000000	
          2.28000000	          5.86615626	        605.71179902	         33.08129205	          0.49786782	          0.00000000	          0.19112336	         -0.00026739	         -0.00001021	         -0.00008079	          0.00000113	          0.00000000	         -0.00000477	          0.00000000	         -3.24692581	          0.00000000	          0.00000000	          0.00000124	          0.00000000	
          2.28500000	          7.28377232	        615.65676631	         32.49946165	          0.50007341	          0.00000000	          0.19114843	          0.00000558	          0.00052849	         -0.00005084	          0.00000068	          0.00000000	         -0.00000304	          0.00000000	         -3.31568842	          0.00000000	          0.00000000	         -0.00000015	          0.00000000	
          2.29000000	          8.53500748	        625.31075541	         32.09080100	          0.50242136	          0.00000000	          0.19117126	          0.00018019	          0.00083215	         -0.00002762	          0.00000033	          0.00000000	         -0.00000168	          0.00000000	         -3.35891290	          0.00000000	          0.00000000	         -0.00000103	          0.00000000	
          2.29500000	          9.61857806	        634.55545211	         31.87890851	          0.50491976	          0.00000000	          0.19119248	          0.00027792	          0.00096107	         -0.00001054	          0.00000009	          0.00000000	         -0.00000068	          0.00000000	         -3.37459431	          0.00000000	          0.00000000	         -0.00000151	          0.00000000	
          2.30000000	         10.54308508	        643.30897621	         31.86421712	          0.50757123	          0.00000000	          0.19121447	          0.00031861	          0.00096773	          0.00000125	         -0.00000008	          0.00000000	          0.00000001	          0.00000000	         -3.36296597	          0.00000000	          0.00000000	         -0.00000170	          0.00000000	
          2.30500000	         11.32797161	        651.52964847	         32.02678481	          0.51037146	          0.00000000	          0.19123962	          0.00031950	          0.00089547	          0.00000871	         -0.00000018	          0.00000000	          0.00000046	          0.00000000	         -3.32633416	          0.00000000	          0.00000000	         -0.00000169	          0.00000000	
          2.31000000	         12.00324500	        659.21971598	         32.33165999	          0.51330897	          0.00000000	          0.19127005	          0.00029481	          0.00077831	          0.00001280	         -0.00000023	          0.00000000	          0.00000071	          0.00000000	         -3.26853135	          0.00000000	          0.00000000	         -0.00000155	          0.00000000	
